<svg width="225" height="32" viewBox="0 0 225 32" fill="none" xmlns="http://www.w3.org/2000/svg">
<path d="M66.3202 20.38C66.7002 20.86 66.8902 21.49 66.8902 22.27C66.8902 23.35 66.4902 24.18 65.6902 24.76C64.8902 25.32 63.8602 25.6 62.6002 25.6C61.8802 25.6 60.9702 25.52 59.8702 25.36C57.7102 25.02 56.3002 24.85 55.6402 24.85C54.9802 24.85 54.5202 24.87 54.2602 24.91C54.0002 24.93 53.6602 24.96 53.2402 25L56.9302 5.2H69.8602C69.8602 6.42 69.5602 7.35 68.9602 7.99C68.3802 8.63 67.5102 8.95 66.3502 8.95C65.1902 8.95 64.0202 8.68 62.8402 8.14L61.9102 13.39H67.2502C67.2502 14.45 66.9902 15.28 66.4702 15.88C65.9502 16.46 65.2502 16.75 64.3702 16.75C63.5102 16.75 62.8102 16.65 62.2702 16.45C61.7302 16.25 61.4302 16.12 61.3702 16.06L60.2902 21.73C60.7702 21.79 61.4602 21.82 62.3602 21.82C63.9002 21.82 65.2202 21.34 66.3202 20.38Z" fill="#171A33"/>
<path d="M78.1728 24.91C77.5128 25.37 76.6528 25.6 75.5928 25.6C74.5528 25.6 73.6428 25.48 72.8628 25.24C72.1028 25 71.4828 24.62 71.0028 24.1C70.0828 23.1 69.6228 21.43 69.6228 19.09C69.6228 16.13 70.5028 13.72 72.2628 11.86C73.9828 10.02 76.2628 9.1 79.1028 9.1C80.1228 9.1 81.0028 9.27 81.7428 9.61L87.0528 9.1L82.9728 30.4L76.9128 31L78.1728 24.91ZM76.4028 23.74C77.0228 23.74 77.5628 23.43 78.0228 22.81C78.4828 22.17 78.8128 21.31 79.0128 20.23L80.6028 11.44C80.1828 11.08 79.7228 10.9 79.2228 10.9C78.7428 10.9 78.3528 10.98 78.0528 11.14C77.7728 11.3 77.5228 11.56 77.3028 11.92C76.7228 12.86 76.2028 14.69 75.7428 17.41C75.4828 19.03 75.3528 20.49 75.3528 21.79C75.3528 23.09 75.7028 23.74 76.4028 23.74Z" fill="#171A33"/>
<path d="M97.7984 23.74C96.8384 24.98 95.1684 25.6 92.7884 25.6C91.5484 25.6 90.4784 25.23 89.5784 24.49C88.6784 23.73 88.2284 22.81 88.2284 21.73C88.2284 21.13 88.2584 20.68 88.3184 20.38L90.3284 9.7L96.4184 9.1L94.2284 20.68C94.1484 21.12 94.1084 21.47 94.1084 21.73C94.1084 22.89 94.4584 23.47 95.1584 23.47C95.9384 23.47 96.6084 22.94 97.1684 21.88C97.3484 21.54 97.4784 21.15 97.5584 20.71L99.6884 9.7L105.598 9.1L103.378 20.8C103.318 21.1 103.288 21.41 103.288 21.73C103.288 22.05 103.378 22.39 103.558 22.75C103.738 23.09 104.118 23.3 104.698 23.38C104.578 23.86 104.308 24.26 103.888 24.58C103.008 25.26 102.088 25.6 101.128 25.6C100.188 25.6 99.4384 25.43 98.8784 25.09C98.3184 24.75 97.9584 24.3 97.7984 23.74Z" fill="#171A33"/>
<path d="M114.411 23.35C113.791 24.85 112.491 25.6 110.511 25.6C109.491 25.6 108.661 25.25 108.021 24.55C107.481 23.93 107.211 23.31 107.211 22.69C107.211 21.07 107.581 18.68 108.321 15.52L109.431 9.7L115.521 9.1L113.691 18.58C113.351 20.06 113.181 21.06 113.181 21.58C113.181 22.72 113.591 23.31 114.411 23.35ZM109.971 5.53C109.971 4.75 110.291 4.15 110.931 3.73C111.591 3.31 112.391 3.1 113.331 3.1C114.271 3.1 115.021 3.31 115.581 3.73C116.161 4.15 116.451 4.75 116.451 5.53C116.451 6.31 116.131 6.9 115.491 7.3C114.871 7.7 114.091 7.9 113.151 7.9C112.211 7.9 111.441 7.7 110.841 7.3C110.261 6.9 109.971 6.31 109.971 5.53Z" fill="#171A33"/>
<path d="M124.137 23.35C123.517 24.85 122.217 25.6 120.237 25.6C119.237 25.6 118.417 25.25 117.777 24.55C117.257 23.97 116.997 23.35 116.997 22.69C116.997 21.19 117.347 18.8 118.047 15.52L120.237 4L126.327 3.4L123.417 18.58C123.077 20.06 122.907 21.06 122.907 21.58C122.907 22.72 123.317 23.31 124.137 23.35Z" fill="#171A33"/>
<path d="M133.894 23.35C133.274 24.85 131.974 25.6 129.994 25.6C128.974 25.6 128.144 25.25 127.504 24.55C126.964 23.93 126.694 23.31 126.694 22.69C126.694 21.07 127.064 18.68 127.804 15.52L128.914 9.7L135.004 9.1L133.174 18.58C132.834 20.06 132.664 21.06 132.664 21.58C132.664 22.72 133.074 23.31 133.894 23.35ZM129.454 5.53C129.454 4.75 129.774 4.15 130.414 3.73C131.074 3.31 131.874 3.1 132.814 3.1C133.754 3.1 134.504 3.31 135.064 3.73C135.644 4.15 135.934 4.75 135.934 5.53C135.934 6.31 135.614 6.9 134.974 7.3C134.354 7.7 133.574 7.9 132.634 7.9C131.694 7.9 130.924 7.7 130.324 7.3C129.744 6.9 129.454 6.31 129.454 5.53Z" fill="#171A33"/>
<path d="M136.06 23.56L139.78 4L145.87 3.4L144.94 7.99C144.72 8.93 144.47 9.73 144.19 10.39C144.63 9.83 145.33 9.44 146.29 9.22C146.57 9.14 146.88 9.1 147.22 9.1C149.08 9.1 150.52 9.67 151.54 10.81C152.56 11.93 153.07 13.58 153.07 15.76C153.07 18.6 152.26 20.91 150.64 22.69C148.9 24.63 146.45 25.6 143.29 25.6C141.11 25.6 139.2 25.24 137.56 24.52C136.98 24.26 136.48 23.94 136.06 23.56ZM142.09 23.29C142.51 23.65 142.98 23.83 143.5 23.83C144.02 23.83 144.43 23.73 144.73 23.53C145.03 23.33 145.29 23.03 145.51 22.63C146.11 21.55 146.65 19.36 147.13 16.06C147.27 15.12 147.34 14.18 147.34 13.24C147.34 12.3 147.23 11.68 147.01 11.38C146.81 11.08 146.51 10.93 146.11 10.93C144.89 10.93 144.08 12.12 143.68 14.5L142.09 23.29Z" fill="#171A33"/>
<path d="M164.267 16.57C164.987 15.29 165.347 14 165.347 12.7C165.347 11.84 165.037 11.41 164.417 11.41C163.937 11.41 163.447 11.82 162.947 12.64C162.427 13.46 162.087 14.4 161.927 15.46L160.367 25L154.157 25.6L157.217 9.7L162.167 9.1L161.627 12.13C162.607 10.11 164.197 9.1 166.397 9.1C167.557 9.1 168.447 9.4 169.067 10C169.707 10.6 170.027 11.52 170.027 12.76C170.027 13.98 169.617 14.98 168.797 15.76C167.997 16.54 166.907 16.93 165.527 16.93C164.927 16.93 164.507 16.81 164.267 16.57Z" fill="#171A33"/>
<path d="M177.722 23.35C177.102 24.85 175.802 25.6 173.822 25.6C172.802 25.6 171.972 25.25 171.332 24.55C170.792 23.93 170.522 23.31 170.522 22.69C170.522 21.07 170.892 18.68 171.632 15.52L172.742 9.7L178.832 9.1L177.002 18.58C176.662 20.06 176.492 21.06 176.492 21.58C176.492 22.72 176.902 23.31 177.722 23.35ZM173.282 5.53C173.282 4.75 173.602 4.15 174.242 3.73C174.902 3.31 175.702 3.1 176.642 3.1C177.582 3.1 178.332 3.31 178.892 3.73C179.472 4.15 179.762 4.75 179.762 5.53C179.762 6.31 179.442 6.9 178.802 7.3C178.182 7.7 177.402 7.9 176.462 7.9C175.522 7.9 174.752 7.7 174.152 7.3C173.572 6.9 173.282 6.31 173.282 5.53Z" fill="#171A33"/>
<path d="M189.908 23.74C188.948 24.98 187.278 25.6 184.898 25.6C183.658 25.6 182.588 25.23 181.688 24.49C180.788 23.73 180.338 22.81 180.338 21.73C180.338 21.13 180.368 20.68 180.428 20.38L182.438 9.7L188.528 9.1L186.338 20.68C186.258 21.12 186.218 21.47 186.218 21.73C186.218 22.89 186.568 23.47 187.268 23.47C188.048 23.47 188.718 22.94 189.278 21.88C189.458 21.54 189.588 21.15 189.668 20.71L191.798 9.7L197.708 9.1L195.488 20.8C195.428 21.1 195.398 21.41 195.398 21.73C195.398 22.05 195.488 22.39 195.668 22.75C195.848 23.09 196.228 23.3 196.808 23.38C196.688 23.86 196.418 24.26 195.998 24.58C195.118 25.26 194.198 25.6 193.238 25.6C192.298 25.6 191.548 25.43 190.988 25.09C190.428 24.75 190.068 24.3 189.908 23.74Z" fill="#171A33"/>
<path d="M220.921 25.6C218.501 25.6 217.291 24.66 217.291 22.78C217.291 21.96 217.461 20.76 217.801 19.18C218.161 17.58 218.401 16.46 218.521 15.82C218.801 14.36 218.941 13.4 218.941 12.94C218.941 11.92 218.561 11.41 217.801 11.41C217.301 11.41 216.811 11.76 216.331 12.46C215.851 13.14 215.501 14.17 215.281 15.55L213.421 25L207.571 25.6L209.191 17.44C209.371 16.54 209.541 15.58 209.701 14.56C209.861 13.54 209.941 12.95 209.941 12.79C209.941 11.87 209.601 11.41 208.921 11.41C208.461 11.41 207.981 11.75 207.481 12.43C206.981 13.11 206.591 14.15 206.311 15.55L204.481 25L198.571 25.6L201.721 9.7L206.611 9.1L206.101 12.13C206.621 11.05 207.361 10.28 208.321 9.82C209.281 9.34 210.511 9.1 212.011 9.1C212.871 9.1 213.581 9.31 214.141 9.73C214.701 10.15 215.071 10.7 215.251 11.38C215.591 10.68 216.191 10.13 217.051 9.73C217.931 9.31 218.901 9.1 219.961 9.1C221.041 9.1 221.841 9.22 222.361 9.46C222.901 9.68 223.331 9.98 223.651 10.36C224.191 11.06 224.461 12.05 224.461 13.33C224.461 14.59 224.191 16.53 223.651 19.15C223.371 20.43 223.231 21.31 223.231 21.79C223.231 22.25 223.361 22.62 223.621 22.9C223.901 23.18 224.241 23.34 224.641 23.38C224.441 24.06 223.991 24.6 223.291 25C222.611 25.4 221.821 25.6 220.921 25.6Z" fill="#171A33"/>
<path d="M40.7494 16.3307C38.5945 28.2852 26.6451 33.6136 15.7419 30.6921C4.83873 27.7706 -1.64256 16.6041 1.26551 5.75105C-0.188493 11.1775 3.05224 16.7609 8.50372 18.2216C13.9554 19.6824 18.8925 16.0646 21.0075 11.0409C23.1224 6.01719 28.0597 2.39948 33.5112 3.8602C38.9627 5.32092 42.2034 10.9043 40.7494 16.3307Z" fill="#F3D8B8"/>
<path d="M37.4357 12.4954C35.4712 23.3629 24.6598 28.2216 14.8054 25.5812C4.95106 22.9407 -0.89407 12.801 1.74994 2.93339C0.427961 7.86707 3.3506 12.9371 8.27768 14.2573C13.205 15.5775 17.6738 12.2829 19.5928 7.71437C21.5119 3.14582 25.9809 -0.148728 30.908 1.17148C35.835 2.49169 38.7577 7.56168 37.4357 12.4954Z" fill="#171A33"/>
<path d="M11.8668 0.721449C9.3566 0.0488522 6.77648 1.53843 6.1039 4.04852C5.43125 6.55889 6.92091 9.13896 9.43108 9.81156C11.9412 10.4842 14.5214 8.99458 15.194 6.48421C15.8666 3.97412 14.3769 1.39405 11.8668 0.721449Z" fill="#171A33"/>
</svg>
