<svg width="133" height="35" viewBox="0 0 133 35" fill="none" xmlns="http://www.w3.org/2000/svg">
<path d="M43.96 19.68C43.96 15.9 44.94 12.82 46.9 10.44C48.98 7.86 51.83 6.57 55.45 6.57C58.07 6.57 60.04 7.21 61.36 8.49C62.68 9.75 63.34 11.72 63.34 14.4C63.34 18.48 62.3 21.71 60.22 24.09C58.16 26.43 55.4 27.6 51.94 27.6C49.24 27.6 47.23 26.93 45.91 25.59C44.61 24.23 43.96 22.26 43.96 19.68ZM51.85 13.47C50.95 17.07 50.5 20.29 50.5 23.13C50.5 23.81 50.61 24.37 50.83 24.81C51.07 25.25 51.49 25.47 52.09 25.47C52.71 25.47 53.21 25.33 53.59 25.05C53.97 24.75 54.31 24.27 54.61 23.61C55.09 22.53 55.55 20.85 55.99 18.57C56.45 16.27 56.7 14.65 56.74 13.71C56.78 12.75 56.8 11.91 56.8 11.19C56.8 10.47 56.69 9.88 56.47 9.42C56.25 8.96 55.84 8.73 55.24 8.73C54.66 8.73 54.17 8.91 53.77 9.27C53.03 9.95 52.39 11.35 51.85 13.47ZM74.1988 18.57C74.9188 17.29 75.2788 16 75.2788 14.7C75.2788 13.84 74.9688 13.41 74.3488 13.41C73.8688 13.41 73.3788 13.82 72.8788 14.64C72.3588 15.46 72.0188 16.4 71.8588 17.46L70.2988 27L64.0888 27.6L67.1488 11.7L72.0988 11.1L71.5588 14.13C72.5388 12.11 74.1288 11.1 76.3288 11.1C77.4888 11.1 78.3788 11.4 78.9988 12C79.6388 12.6 79.9588 13.52 79.9588 14.76C79.9588 15.98 79.5488 16.98 78.7288 17.76C77.9288 18.54 76.8388 18.93 75.4588 18.93C74.8588 18.93 74.4388 18.81 74.1988 18.57ZM92.6034 21.93C93.1034 22.27 93.3534 22.82 93.3534 23.58C93.3534 24.32 93.1634 24.93 92.7834 25.41C92.4034 25.89 91.9034 26.29 91.2834 26.61C90.0034 27.27 88.6734 27.6 87.2934 27.6C85.9134 27.6 84.8134 27.45 83.9934 27.15C83.1934 26.85 82.5234 26.42 81.9834 25.86C80.9234 24.8 80.3934 23.3 80.3934 21.36C80.3934 18.34 81.2134 15.91 82.8534 14.07C84.6134 12.09 87.0234 11.1 90.0834 11.1C91.9834 11.1 93.4034 11.5 94.3434 12.3C95.0434 12.9 95.3934 13.69 95.3934 14.67C95.3934 18.19 92.3534 19.95 86.2734 19.95C86.1934 20.47 86.1534 20.95 86.1534 21.39C86.1534 22.31 86.3534 22.95 86.7534 23.31C87.1734 23.65 87.7634 23.82 88.5234 23.82C89.2834 23.82 90.0634 23.65 90.8634 23.31C91.6834 22.95 92.2634 22.49 92.6034 21.93ZM86.4834 18.66C87.9034 18.66 89.0234 18.22 89.8434 17.34C90.6634 16.5 91.0734 15.41 91.0734 14.07C91.0734 13.61 90.9834 13.26 90.8034 13.02C90.6434 12.76 90.3934 12.63 90.0534 12.63C89.7134 12.63 89.3934 12.7 89.0934 12.84C88.8134 12.96 88.5234 13.24 88.2234 13.68C87.4834 14.68 86.9034 16.34 86.4834 18.66ZM104.16 12.78C105.24 11.66 106.92 11.1 109.2 11.1C110.46 11.1 111.43 11.44 112.11 12.12C112.81 12.78 113.16 13.73 113.16 14.97C113.16 16.19 112.81 17.24 112.11 18.12C111.43 18.98 110.45 19.59 109.17 19.95C109.27 20.35 109.39 20.76 109.53 21.18L109.95 22.38C110.33 23.4 110.67 24.09 110.97 24.45C111.27 24.81 111.62 25.05 112.02 25.17C111.8 25.99 111.29 26.62 110.49 27.06C109.85 27.42 109.09 27.6 108.21 27.6C105.63 27.6 104.17 25.61 103.83 21.63C103.77 21.07 103.74 20.51 103.74 19.95C104.74 19.67 105.59 19.06 106.29 18.12C106.99 17.18 107.34 16.16 107.34 15.06C107.34 13.96 106.95 13.41 106.17 13.41C105.61 13.41 105.11 13.72 104.67 14.34C104.23 14.96 103.91 15.8 103.71 16.86L101.73 27L95.6702 27.6L99.8702 6L105.9 5.4L105.21 8.97C104.91 10.65 104.56 11.92 104.16 12.78ZM115.816 26.1C115.356 25.58 115.016 24.91 114.796 24.09C114.596 23.27 114.496 22.19 114.496 20.85C114.496 19.51 114.726 18.23 115.186 17.01C115.646 15.79 116.296 14.74 117.136 13.86C118.856 12.02 121.136 11.1 123.976 11.1C124.996 11.1 125.876 11.27 126.616 11.61L131.746 11.1L129.526 22.8C129.466 23.04 129.436 23.38 129.436 23.82C129.436 24.26 129.566 24.62 129.826 24.9C130.106 25.18 130.446 25.34 130.846 25.38C130.646 26.06 130.176 26.6 129.436 27C128.716 27.4 127.946 27.6 127.126 27.6C126.306 27.6 125.616 27.44 125.056 27.12C124.516 26.82 124.166 26.41 124.006 25.89C123.686 26.39 123.186 26.8 122.506 27.12C121.826 27.44 121.026 27.6 120.106 27.6C119.206 27.6 118.386 27.48 117.646 27.24C116.906 27 116.296 26.62 115.816 26.1ZM122.146 13.92C121.926 14.28 121.716 14.77 121.516 15.39C121.316 15.99 121.046 17.11 120.706 18.75C120.386 20.37 120.226 21.76 120.226 22.92C120.226 24.08 120.316 24.83 120.496 25.17C120.676 25.51 120.926 25.68 121.246 25.68C121.886 25.68 122.436 25.38 122.896 24.78C123.376 24.16 123.706 23.31 123.886 22.23L125.476 13.44C125.056 13.08 124.596 12.9 124.096 12.9C123.616 12.9 123.226 12.98 122.926 13.14C122.646 13.3 122.386 13.56 122.146 13.92Z" fill="#FFFBF4"/>
<path d="M33.4657 16.7806C31.6843 26.6353 21.8805 31.0412 12.9445 28.6469C4.00852 26.2525 -1.29186 17.0577 1.10573 8.10981C-0.0930391 12.5837 2.55722 17.1812 7.02511 18.3783C11.4932 19.5756 15.5455 16.588 17.2857 12.4452C19.0259 8.30245 23.0784 5.31494 27.5463 6.51211C32.0142 7.70928 34.6645 12.3068 33.4657 16.7806Z" fill="#FFFBF4"/>
<path d="M10.2789 6.10415C8.0027 5.49424 5.66304 6.84499 5.05315 9.12115C4.44318 11.3976 5.79401 13.7372 8.07024 14.3471C10.3465 14.957 12.6861 13.6062 13.2961 11.3298C13.906 9.05368 12.5552 6.71407 10.2789 6.10415Z" fill="#FFFBF4"/>
</svg>
