<svg width="192" height="45" viewBox="0 0 192 45" fill="none" xmlns="http://www.w3.org/2000/svg">
<path d="M71.1853 25.3519C71.1853 20.1876 72.5242 15.9797 75.202 12.7281C78.0437 9.20329 81.9374 7.44087 86.8831 7.44087C90.4626 7.44087 93.154 8.31525 94.9574 10.064C96.7608 11.7854 97.6625 14.4769 97.6625 18.1383C97.6625 23.7125 96.2416 28.1253 93.3999 31.3769C90.5855 34.5739 86.8148 36.1723 82.0877 36.1723C78.3989 36.1723 75.6528 35.257 73.8494 33.4262C72.0733 31.5682 71.1853 28.8768 71.1853 25.3519ZM81.9647 16.8677C80.7351 21.7861 80.1203 26.1853 80.1203 30.0654C80.1203 30.9944 80.2706 31.7595 80.5712 32.3606C80.8991 32.9617 81.4729 33.2623 82.2926 33.2623C83.1397 33.2623 83.8228 33.071 84.3419 32.6885C84.8611 32.2786 85.3256 31.6228 85.7355 30.7211C86.3912 29.2456 87.0197 26.9504 87.6208 23.8354C88.2493 20.6931 88.5909 18.4799 88.6455 17.1956C88.7001 15.8841 88.7275 14.7365 88.7275 13.7528C88.7275 12.7691 88.5772 11.963 88.2766 11.3346C87.9761 10.7061 87.4159 10.3919 86.5962 10.3919C85.8038 10.3919 85.1343 10.6378 84.5878 11.1297C83.5769 12.0587 82.7025 13.9714 81.9647 16.8677Z" fill="white"/>
<path d="M112.498 23.8354C113.482 22.0867 113.973 20.3243 113.973 18.5482C113.973 17.3732 113.55 16.7858 112.703 16.7858C112.047 16.7858 111.378 17.3459 110.695 18.4662C109.984 19.5865 109.52 20.8707 109.301 22.3189L107.17 35.3526L98.6856 36.1723L102.866 14.4495L109.629 13.6298L108.891 17.7694C110.23 15.0097 112.402 13.6298 115.408 13.6298C116.993 13.6298 118.209 14.0397 119.056 14.8594C119.93 15.6791 120.367 16.9361 120.367 18.6302C120.367 20.2969 119.807 21.6631 118.687 22.7288C117.594 23.7944 116.105 24.3273 114.219 24.3273C113.4 24.3273 112.826 24.1633 112.498 23.8354Z" fill="white"/>
<path d="M137.642 28.4259C138.326 28.8904 138.667 29.6418 138.667 30.6802C138.667 31.6912 138.408 32.5245 137.888 33.1803C137.369 33.8361 136.686 34.3826 135.839 34.8198C134.09 35.7215 132.273 36.1723 130.388 36.1723C128.503 36.1723 127 35.9674 125.879 35.5575C124.786 35.1477 123.871 34.5602 123.133 33.7951C121.685 32.3469 120.961 30.2976 120.961 27.6472C120.961 23.5212 122.081 20.2013 124.322 17.6875C126.726 14.9824 130.019 13.6298 134.2 13.6298C136.795 13.6298 138.735 14.1763 140.02 15.2693C140.976 16.089 141.454 17.1683 141.454 18.5072C141.454 23.3163 137.301 25.7208 128.994 25.7208C128.885 26.4312 128.83 27.087 128.83 27.6881C128.83 28.9451 129.104 29.8194 129.65 30.3113C130.224 30.7758 131.03 31.008 132.068 31.008C133.107 31.008 134.172 30.7758 135.265 30.3113C136.386 29.8194 137.178 29.191 137.642 28.4259ZM129.281 23.9584C131.221 23.9584 132.751 23.3573 133.872 22.155C134.992 21.0074 135.552 19.5182 135.552 17.6875C135.552 17.059 135.429 16.5808 135.183 16.2529C134.965 15.8977 134.623 15.7201 134.159 15.7201C133.694 15.7201 133.257 15.8158 132.847 16.007C132.465 16.171 132.068 16.5535 131.658 17.1546C130.647 18.5209 129.855 20.7888 129.281 23.9584Z" fill="white"/>
<path d="M153.432 15.9251C154.907 14.3949 157.202 13.6298 160.317 13.6298C162.039 13.6298 163.364 14.0943 164.293 15.0234C165.249 15.9251 165.727 17.223 165.727 18.9171C165.727 20.5838 165.249 22.0184 164.293 23.2206C163.364 24.3956 162.025 25.229 160.276 25.7208C160.413 26.2673 160.577 26.8274 160.768 27.4012L161.342 29.0407C161.861 30.4342 162.326 31.3769 162.735 31.8688C163.145 32.3606 163.623 32.6885 164.17 32.8524C163.869 33.9727 163.173 34.8334 162.08 35.4346C161.205 35.9264 160.167 36.1723 158.965 36.1723C155.44 36.1723 153.445 33.4536 152.981 28.016C152.899 27.251 152.858 26.4859 152.858 25.7208C154.224 25.3383 155.385 24.5049 156.342 23.2206C157.298 21.9364 157.776 20.5429 157.776 19.04C157.776 17.5372 157.243 16.7858 156.178 16.7858C155.413 16.7858 154.729 17.2093 154.128 18.0563C153.527 18.9034 153.09 20.051 152.817 21.4992L150.112 35.3526L141.832 36.1723L147.57 6.66213L155.809 5.84241L154.866 10.7198C154.456 13.015 153.978 14.7501 153.432 15.9251Z" fill="white"/>
<path d="M169.355 34.123C168.727 33.4126 168.262 32.4972 167.962 31.3769C167.689 30.2566 167.552 28.7811 167.552 26.9504C167.552 25.1197 167.866 23.3709 168.495 21.7041C169.123 20.0374 170.011 18.6028 171.159 17.4006C173.509 14.8867 176.624 13.6298 180.504 13.6298C181.897 13.6298 183.099 13.8621 184.11 14.3266L191.119 13.6298L188.086 29.6145C188.004 29.9424 187.963 30.4069 187.963 31.008C187.963 31.6092 188.141 32.101 188.496 32.4836C188.879 32.8661 189.343 33.0847 189.89 33.1393C189.616 34.0684 188.974 34.8061 187.963 35.3526C186.979 35.8991 185.928 36.1723 184.807 36.1723C183.687 36.1723 182.744 35.9537 181.979 35.5165C181.241 35.1067 180.763 34.5465 180.545 33.8361C180.107 34.5192 179.424 35.0794 178.495 35.5165C177.566 35.9537 176.473 36.1723 175.216 36.1723C173.987 36.1723 172.867 36.0084 171.856 35.6805C170.845 35.3526 170.011 34.8334 169.355 34.123ZM178.003 17.4825C177.703 17.9744 177.416 18.6438 177.143 19.4909C176.87 20.3106 176.501 21.8408 176.036 24.0813C175.599 26.2946 175.38 28.1936 175.38 29.7785C175.38 31.3633 175.503 32.3879 175.749 32.8524C175.995 33.3169 176.337 33.5492 176.774 33.5492C177.648 33.5492 178.4 33.1393 179.028 32.3196C179.684 31.4726 180.135 30.3113 180.381 28.8358L182.553 16.8268C181.979 16.3349 181.351 16.089 180.668 16.089C180.012 16.089 179.479 16.1983 179.069 16.4169C178.687 16.6355 178.331 16.9907 178.003 17.4825Z" fill="white"/>
<path fill-rule="evenodd" clip-rule="evenodd" d="M39.921 6.02454C33.8441 6.01806 28.617 10.4585 26.1655 16.2816C23.276 23.1451 16.5309 28.0877 9.08272 26.092C8.14407 25.8404 7.25338 25.4995 6.41747 25.0807C9.30025 28.9466 13.4537 31.9051 18.469 33.2489C30.6647 36.5167 43.3601 30.448 45.6581 17.7351L45.6803 17.6125L45.7125 17.4922C46.9981 12.6944 44.4328 7.77887 39.921 6.02454ZM52.0143 14.0069C52.1161 15.6194 51.9679 17.2746 51.5406 18.9218C48.4137 35.8179 31.6121 42.9822 16.9161 39.0444C9.79628 37.1367 4.0467 32.6693 0.388428 26.8964C3.60836 34.6023 10.2559 40.794 18.9717 43.1294C33.8677 47.1207 50.1932 39.841 53.1372 23.5087C53.5003 19.9279 53.1254 16.697 52.0143 14.0069Z" fill="#CEA16B"/>
<path fill-rule="evenodd" clip-rule="evenodd" d="M26.9991 12.8986C29.2609 7.51397 34.123 4.41136 38.9156 5.69553C44.043 7.06942 47.0909 12.3484 45.7126 17.4921L45.6804 17.6124L45.6582 17.7349C43.3602 30.4479 30.6648 36.5166 18.4691 33.2488C12.2807 31.5906 7.40436 27.4741 4.6084 22.2278C5.65968 22.7955 6.7933 23.2507 7.99787 23.5735C16.6685 25.8968 24.0173 19.9971 26.9991 12.8986Z" fill="white"/>
<path d="M13.677 2.18297C10.2475 1.26406 6.72255 3.29914 5.80367 6.72845C4.88469 10.1582 6.91988 13.6831 10.3493 14.602C13.7787 15.5209 17.3037 13.4858 18.2227 10.0561C19.1416 6.6268 17.1064 3.10188 13.677 2.18297Z" fill="white"/>
</svg>
